<svg xmlns="http://www.w3.org/2000/svg" viewBox="0 0 100 100">
  <defs>
    <linearGradient id="grad" x1="0%" y1="0%" x2="100%" y2="100%">
      <stop offset="0%" style="stop-color:#667eea;stop-opacity:1" />
      <stop offset="100%" style="stop-color:#764ba2;stop-opacity:1" />
    </linearGradient>
  </defs>
  <circle cx="50" cy="50" r="45" fill="url(#grad)"/>
  <path d="M50 15 C25 15 15 35 15 50 C15 65 25 85 50 85 C75 85 85 65 85 50 C85 35 75 15 50 15 M50 20 C70 20 80 38 80 50 C80 62 70 80 50 80 C30 80 20 62 20 50 C20 38 30 20 50 20" fill="none" stroke="white" stroke-width="3"/>
  <ellipse cx="50" cy="50" rx="12" ry="35" fill="none" stroke="white" stroke-width="2.5"/>
  <line x1="15" y1="50" x2="85" y2="50" stroke="white" stroke-width="2.5"/>
  <path d="M25 35 Q50 30 75 35" fill="none" stroke="white" stroke-width="2"/>
  <path d="M25 65 Q50 70 75 65" fill="none" stroke="white" stroke-width="2"/>
</svg>
